<svg xmlns="http://www.w3.org/2000/svg" version="1.1" xmlns:xlink="http://www.w3.org/1999/xlink" xmlns:svgjs="http://svgjs.dev/svgjs" width="2144" height="1080" preserveAspectRatio="none" viewBox="0 0 2144 1080"><g mask="url(&quot;#SvgjsMask1067&quot;)" fill="none"><rect width="2144" height="1080" x="0" y="0" fill="rgba(30, 30, 30, 1)"></rect><path d="M1591.24 389.56 a190.78 190.78 0 1 0 381.56 0 a190.78 190.78 0 1 0 -381.56 0z" fill="rgba(185, 106, 90, 0.4)" class="triangle-float2"></path><path d="M1801.2 329.53 a216.75 216.75 0 1 0 433.5 0 a216.75 216.75 0 1 0 -433.5 0z" fill="rgba(185, 106, 90, 0.4)" class="triangle-float2"></path><path d="M1170.099,471.503C1220.201,475.646,1279.538,474.14,1304.754,430.648C1330.01,387.088,1298.706,336.795,1273.462,293.228C1248.32,249.837,1220.247,198.533,1170.099,198.256C1119.699,197.978,1086.328,246.533,1064.742,292.077C1046.507,330.55,1047.629,374.451,1069.187,411.166C1090.456,447.388,1128.237,468.041,1170.099,471.503" fill="rgba(185, 106, 90, 0.4)" class="triangle-float2"></path><path d="M2165.308,697.4C2277.427,694.656,2380.574,638.175,2437.964,541.818C2496.77,443.085,2507.416,319.58,2449.434,220.36C2391.925,121.949,2279.27,77.394,2165.308,75.242C2046.849,73.005,1924.23,108.464,1861.968,209.266C1796.906,314.603,1803.165,450.595,1868.514,555.754C1930.528,655.546,2047.852,700.274,2165.308,697.4" fill="rgba(185, 106, 90, 0.4)" class="triangle-float3"></path><path d="M1498.88 1000.23 a314.45 314.45 0 1 0 628.9 0 a314.45 314.45 0 1 0 -628.9 0z" fill="rgba(185, 106, 90, 0.4)" class="triangle-float2"></path><path d="M1733.515,659.781C1769.114,661.663,1809.172,655.43,1826.841,624.468C1844.415,593.671,1828.265,556.798,1809.422,526.761C1792.053,499.075,1766.188,474.886,1733.515,475.705C1701.901,476.497,1679.289,502.767,1663.925,530.408C1649.101,557.076,1641.395,588.556,1655.849,615.426C1670.986,643.566,1701.607,658.094,1733.515,659.781" fill="rgba(185, 106, 90, 0.4)" class="triangle-float1"></path><path d="M413.804,1128.668C499.155,1127.565,565.308,1061.536,605.706,986.343C643.696,915.633,647.693,833.092,610.945,761.729C570.621,683.422,501.793,617.679,413.804,613.683C319.505,609.4,227.288,658.932,182.999,742.293C140.936,821.464,167.141,914.45,213.117,991.415C257.663,1065.986,326.948,1129.79,413.804,1128.668" fill="rgba(185, 106, 90, 0.4)" class="triangle-float3"></path><path d="M1328.381,774.864C1379.709,776.471,1424.806,742.393,1449.408,697.317C1472.985,654.119,1468.92,603.092,1445.863,559.614C1421.039,512.804,1381.366,469.193,1328.381,469.1C1275.283,469.007,1233.597,511.543,1210.185,559.201C1189.505,601.298,1197.26,649,1219.802,690.13C1243.451,733.28,1279.199,773.325,1328.381,774.864" fill="rgba(185, 106, 90, 0.4)" class="triangle-float1"></path><path d="M-233.52 504.11 a236.27 236.27 0 1 0 472.54 0 a236.27 236.27 0 1 0 -472.54 0z" fill="rgba(185, 106, 90, 0.4)" class="triangle-float3"></path><path d="M297.441,636.454C386.594,641.143,482.506,609.358,523.554,530.078C562.509,454.84,519.849,368.711,472.413,298.511C431.794,238.4,369.977,196.785,297.441,195.456C222.463,194.083,149.687,227.648,111.004,291.892C71.125,358.124,72.292,440.285,109.083,508.28C147.818,579.868,216.157,632.179,297.441,636.454" fill="rgba(185, 106, 90, 0.4)" class="triangle-float1"></path><path d="M1110.144,872.737C1171.702,871.108,1222.062,829.526,1252.991,776.276C1284.083,722.745,1298.502,656.524,1266.509,603.526C1235.322,551.863,1170.467,537.97,1110.144,539.643C1053.251,541.221,998.805,563.871,968.117,611.804C934.79,663.859,924.021,729.912,953.571,784.201C984.293,840.644,1045.904,874.437,1110.144,872.737" fill="rgba(185, 106, 90, 0.4)" class="triangle-float1"></path><path d="M1685.725,164.183C1731.292,163.325,1763.121,123.203,1783.776,82.577C1802.243,46.256,1803.489,4.946,1785.199,-31.464C1764.611,-72.448,1731.576,-111.537,1685.725,-112.61C1638.532,-113.714,1599.822,-78.096,1577.848,-36.316C1557.434,2.499,1560.28,47.775,1581.06,86.396C1603.135,127.423,1639.144,165.06,1685.725,164.183" fill="rgba(185, 106, 90, 0.4)" class="triangle-float1"></path><path d="M1221.21 647.72 a219 219 0 1 0 438 0 a219 219 0 1 0 -438 0z" fill="rgba(185, 106, 90, 0.4)" class="triangle-float3"></path><path d="M130.3 245.78 a340.29 340.29 0 1 0 680.58 0 a340.29 340.29 0 1 0 -680.58 0z" fill="rgba(185, 106, 90, 0.4)" class="triangle-float2"></path><path d="M863.49 884.52 a346.44 346.44 0 1 0 692.88 0 a346.44 346.44 0 1 0 -692.88 0z" fill="rgba(185, 106, 90, 0.4)" class="triangle-float3"></path><path d="M1838.74,1279.554C1925.517,1281.585,2019.113,1262.548,2063.855,1188.167C2109.644,1112.044,2086.48,1017.736,2042.735,940.42C1998.175,861.663,1929.211,788.491,1838.74,790.292C1750.369,792.051,1690.056,870.344,1648.34,948.269C1609.488,1020.843,1590.144,1106.67,1631.163,1178.041C1672.299,1249.615,1756.21,1277.623,1838.74,1279.554" fill="rgba(185, 106, 90, 0.4)" class="triangle-float1"></path><path d="M1258.8 210.56 a290.23 290.23 0 1 0 580.46 0 a290.23 290.23 0 1 0 -580.46 0z" fill="rgba(185, 106, 90, 0.4)" class="triangle-float1"></path><path d="M1599.365,1386.507C1694.46,1385.365,1773.546,1325.334,1825.086,1245.409C1882.417,1156.502,1927.631,1047.633,1878.201,954.103C1826.427,856.139,1710.075,813.746,1599.365,818.307C1496.438,822.547,1406.893,885.053,1357.673,975.548C1310.65,1062.003,1314.163,1166.112,1364.054,1250.945C1413.238,1334.575,1502.351,1387.672,1599.365,1386.507" fill="rgba(185, 106, 90, 0.4)" class="triangle-float3"></path><path d="M239.98 3.55 a283.18 283.18 0 1 0 566.36 0 a283.18 283.18 0 1 0 -566.36 0z" fill="rgba(185, 106, 90, 0.4)" class="triangle-float3"></path><path d="M1711.871,1211.974C1791.876,1206.233,1847.867,1144.074,1890.739,1076.282C1938.068,1001.442,1987.413,915.8,1949.896,835.59C1907.964,745.943,1810.594,686.895,1711.871,693.874C1621.636,700.253,1569.844,786.571,1525.78,865.573C1483.327,941.686,1440.985,1028.822,1482.229,1105.597C1525.019,1185.249,1621.685,1218.446,1711.871,1211.974" fill="rgba(185, 106, 90, 0.4)" class="triangle-float2"></path></g><defs><mask id="SvgjsMask1067"><rect width="2144" height="1080" fill="#ffffff"></rect></mask><style>
                @keyframes float1 {
                    0%{transform: translate(0, 0)}
                    50%{transform: translate(-10px, 0)}
                    100%{transform: translate(0, 0)}
                }

                .triangle-float1 {
                    animation: float1 5s infinite;
                }

                @keyframes float2 {
                    0%{transform: translate(0, 0)}
                    50%{transform: translate(-5px, -5px)}
                    100%{transform: translate(0, 0)}
                }

                .triangle-float2 {
                    animation: float2 4s infinite;
                }

                @keyframes float3 {
                    0%{transform: translate(0, 0)}
                    50%{transform: translate(0, -10px)}
                    100%{transform: translate(0, 0)}
                }

                .triangle-float3 {
                    animation: float3 6s infinite;
                }
            </style></defs></svg>