<svg xmlns="http://www.w3.org/2000/svg" version="1.1" xmlns:xlink="http://www.w3.org/1999/xlink" xmlns:svgjs="http://svgjs.dev/svgjs" width="2144" height="1080" preserveAspectRatio="none" viewBox="0 0 2144 1080"><g mask="url(&quot;#SvgjsMask1117&quot;)" fill="none"><rect width="2144" height="1080" x="0" y="0" fill="rgba(240, 240, 240, 1)"></rect><path d="M328.75 858.27 a311.12 311.12 0 1 0 622.24 0 a311.12 311.12 0 1 0 -622.24 0z" fill="rgba(90, 117, 255, 0.5)" class="triangle-float2"></path><path d="M1465.697,1046.883C1506.874,1047.177,1553.242,1044.275,1574.571,1009.051C1596.399,973.004,1581.135,928.199,1559.441,892.071C1538.531,857.249,1506.31,828.394,1465.697,827.745C1424.087,827.08,1387.781,853.158,1366.613,888.987C1345.034,925.511,1336.938,971.581,1359.487,1007.514C1380.997,1041.792,1425.23,1046.594,1465.697,1046.883" fill="rgba(90, 117, 255, 0.5)" class="triangle-float1"></path><path d="M1105.27 388.62 a350.07 350.07 0 1 0 700.14 0 a350.07 350.07 0 1 0 -700.14 0z" fill="rgba(90, 117, 255, 0.5)" class="triangle-float3"></path><path d="M2005.079,921.078C2104.657,920.382,2180.003,841.551,2228.692,754.686C2276.086,670.131,2294.58,570.252,2249.95,484.207C2201.776,391.329,2109.544,317.734,2005.079,323.569C1907.318,329.03,1849.097,422.549,1803.412,509.151C1761.704,588.215,1736.68,677.565,1775.985,757.851C1820.174,848.112,1904.584,921.781,2005.079,921.078" fill="rgba(90, 117, 255, 0.5)" class="triangle-float2"></path><path d="M667.894,732.211C700.819,733.694,730.716,713.456,747.047,684.829C763.23,656.461,764.161,621.249,747.074,593.416C730.697,566.739,699.153,554.233,667.894,555.896C639.402,557.412,615.892,576.166,602.076,601.13C588.737,625.233,587.837,653.595,600.199,678.214C614.081,705.861,636.988,730.819,667.894,732.211" fill="rgba(90, 117, 255, 0.5)" class="triangle-float1"></path><path d="M1200.4 97.79 a333.89 333.89 0 1 0 667.78 0 a333.89 333.89 0 1 0 -667.78 0z" fill="rgba(90, 117, 255, 0.5)" class="triangle-float2"></path><path d="M2051.775,979.155C2147.888,974.832,2242.584,941.145,2292.825,859.095C2345.244,773.489,2349.565,663.872,2297.312,578.164C2246.931,495.527,2148.559,463.728,2051.775,463.711C1954.956,463.694,1860.13,497.744,1806.091,578.079C1744.94,668.987,1712.765,789.185,1769.994,882.611C1825.58,973.354,1945.467,983.937,2051.775,979.155" fill="rgba(90, 117, 255, 0.5)" class="triangle-float1"></path><path d="M-51.4 803.73 a217.48 217.48 0 1 0 434.96 0 a217.48 217.48 0 1 0 -434.96 0z" fill="rgba(90, 117, 255, 0.5)" class="triangle-float3"></path><path d="M587.01 223.49 a192.04 192.04 0 1 0 384.08 0 a192.04 192.04 0 1 0 -384.08 0z" fill="rgba(90, 117, 255, 0.5)" class="triangle-float1"></path><path d="M47.24 176.57 a193.94 193.94 0 1 0 387.88 0 a193.94 193.94 0 1 0 -387.88 0z" fill="rgba(90, 117, 255, 0.5)" class="triangle-float2"></path><path d="M1890.438,361.991C1980.452,365.54,2072.151,331.511,2118.383,254.195C2165.689,175.085,2154.821,76.383,2109.073,-3.638C2062.954,-84.307,1983.355,-145.492,1890.438,-144.515C1798.951,-143.553,1721.872,-80.276,1679.625,0.878C1640.561,75.918,1648.984,164.309,1691.636,237.369C1733.898,309.762,1806.677,358.688,1890.438,361.991" fill="rgba(90, 117, 255, 0.5)" class="triangle-float2"></path><path d="M891.39 923.41 a357.69 357.69 0 1 0 715.38 0 a357.69 357.69 0 1 0 -715.38 0z" fill="rgba(90, 117, 255, 0.5)" class="triangle-float1"></path></g><defs><mask id="SvgjsMask1117"><rect width="2144" height="1080" fill="#ffffff"></rect></mask><style>
                @keyframes float1 {
                    0%{transform: translate(0, 0)}
                    50%{transform: translate(-10px, 0)}
                    100%{transform: translate(0, 0)}
                }

                .triangle-float1 {
                    animation: float1 5s infinite;
                }

                @keyframes float2 {
                    0%{transform: translate(0, 0)}
                    50%{transform: translate(-5px, -5px)}
                    100%{transform: translate(0, 0)}
                }

                .triangle-float2 {
                    animation: float2 4s infinite;
                }

                @keyframes float3 {
                    0%{transform: translate(0, 0)}
                    50%{transform: translate(0, -10px)}
                    100%{transform: translate(0, 0)}
                }

                .triangle-float3 {
                    animation: float3 6s infinite;
                }
            </style></defs></svg>