<svg xmlns="http://www.w3.org/2000/svg" version="1.1" xmlns:xlink="http://www.w3.org/1999/xlink" xmlns:svgjs="http://svgjs.dev/svgjs" width="2144" height="200" preserveAspectRatio="none" viewBox="0 0 2144 200"><g mask="url(&quot;#SvgjsMask1868&quot;)" fill="none"><g transform="translate(0, -90)" stroke-linecap="round" stroke="url(&quot;#SvgjsLinearGradient1869&quot;)"><path d="M46 76.52 L46 123.48" stroke-width="40.5"></path><path d="M100 35.39 L100 164.61" stroke-width="40.5"></path><path d="M154 47.31 L154 152.69" stroke-width="40.5"></path><path d="M208 30.72 L208 169.28" stroke-width="40.5"></path><path d="M262 57.33 L262 142.68" stroke-width="40.5"></path><path d="M316 63.26 L316 136.74" stroke-width="40.5"></path><path d="M370 30.93 L370 169.07" stroke-width="40.5"></path><path d="M424 76.17 L424 123.83" stroke-width="40.5"></path><path d="M478 37.85 L478 162.15" stroke-width="40.5"></path><path d="M532 37.88 L532 162.12" stroke-width="40.5"></path><path d="M586 67.01 L586 132.99" stroke-width="40.5"></path><path d="M640 54.06 L640 145.94" stroke-width="40.5"></path><path d="M694 52.1 L694 147.9" stroke-width="40.5"></path><path d="M748 63.35 L748 136.65" stroke-width="40.5"></path><path d="M802 40.2 L802 159.8" stroke-width="40.5"></path><path d="M856 59.36 L856 140.64" stroke-width="40.5"></path><path d="M910 64.26 L910 135.74" stroke-width="40.5"></path><path d="M964 34.87 L964 165.13" stroke-width="40.5"></path><path d="M1018 68.86 L1018 131.14" stroke-width="40.5"></path><path d="M1072 74.17 L1072 125.83" stroke-width="40.5"></path><path d="M1126 63.92 L1126 136.07" stroke-width="40.5"></path><path d="M1180 62.71 L1180 137.29" stroke-width="40.5"></path><path d="M1234 46.99 L1234 153.01" stroke-width="40.5"></path><path d="M1288 88.57 L1288 111.43" stroke-width="40.5"></path><path d="M1342 34.45 L1342 165.55" stroke-width="40.5"></path><path d="M1396 49.84 L1396 150.16" stroke-width="40.5"></path><path d="M1450 50.03 L1450 149.97" stroke-width="40.5"></path><path d="M1504 55.98 L1504 144.03" stroke-width="40.5"></path><path d="M1558 85.61 L1558 114.39" stroke-width="40.5"></path><path d="M1612 39.1 L1612 160.9" stroke-width="40.5"></path><path d="M1666 84.33 L1666 115.67" stroke-width="40.5"></path><path d="M1720 48.23 L1720 151.77" stroke-width="40.5"></path><path d="M1774 83.69 L1774 116.31" stroke-width="40.5"></path><path d="M1828 85.33 L1828 114.67" stroke-width="40.5"></path><path d="M1882 81.11 L1882 118.89" stroke-width="40.5"></path><path d="M1936 52.7 L1936 147.3" stroke-width="40.5"></path><path d="M1990 51.01 L1990 149" stroke-width="40.5"></path><path d="M2044 41.7 L2044 158.31" stroke-width="40.5"></path><path d="M2098 48.44 L2098 151.56" stroke-width="40.5"></path></g></g><defs><mask id="SvgjsMask1868"><rect width="2144" height="200" fill="#ffffff"></rect></mask><linearGradient x1="2144" y1="100" x2="0" y2="100" gradientUnits="userSpaceOnUse" id="SvgjsLinearGradient1869"><stop stop-color="rgba(204, 204, 204, 1)" offset="0"></stop><stop stop-color="rgba(185, 106, 90, 1)" offset="1"></stop></linearGradient></defs></svg>